<mxfile host="app.diagrams.net" agent="Mozilla/5.0 (Windows NT 10.0; Win64; x64) AppleWebKit/537.36 (KHTML, like Gecko) Chrome/127.0.0.0 Safari/537.36" version="24.7.7">
  <diagram name="Page-1" id="TQ3GREo87TUX43PJex4X">
    <mxGraphModel dx="2025" dy="1318" grid="1" gridSize="10" guides="1" tooltips="1" connect="1" arrows="1" fold="1" page="1" pageScale="1" pageWidth="850" pageHeight="1100" math="0" shadow="0">
      <root>
        <mxCell id="0" />
        <mxCell id="1" parent="0" />
        <mxCell id="rRNU8Htm1phzaiXf5d_H-3" style="edgeStyle=orthogonalEdgeStyle;rounded=0;orthogonalLoop=1;jettySize=auto;html=1;exitX=0.5;exitY=1;exitDx=0;exitDy=0;exitPerimeter=0;entryX=0.5;entryY=0;entryDx=0;entryDy=0;" edge="1" parent="1" source="rRNU8Htm1phzaiXf5d_H-1" target="rRNU8Htm1phzaiXf5d_H-2">
          <mxGeometry relative="1" as="geometry" />
        </mxCell>
        <mxCell id="rRNU8Htm1phzaiXf5d_H-1" value="Open Smart Irrigation Control Web App" style="strokeWidth=2;html=1;shape=mxgraph.flowchart.terminator;whiteSpace=wrap;" vertex="1" parent="1">
          <mxGeometry x="370" y="40" width="100" height="60" as="geometry" />
        </mxCell>
        <mxCell id="rRNU8Htm1phzaiXf5d_H-11" style="edgeStyle=orthogonalEdgeStyle;rounded=0;orthogonalLoop=1;jettySize=auto;html=1;exitX=0.5;exitY=1;exitDx=0;exitDy=0;entryX=0.5;entryY=0;entryDx=0;entryDy=0;" edge="1" parent="1" source="rRNU8Htm1phzaiXf5d_H-2" target="rRNU8Htm1phzaiXf5d_H-5">
          <mxGeometry relative="1" as="geometry" />
        </mxCell>
        <mxCell id="rRNU8Htm1phzaiXf5d_H-2" value="" style="verticalLabelPosition=bottom;verticalAlign=top;html=1;shape=process;whiteSpace=wrap;rounded=1;size=0.14;arcSize=6;" vertex="1" parent="1">
          <mxGeometry x="320" y="130" width="200" height="60" as="geometry" />
        </mxCell>
        <mxCell id="rRNU8Htm1phzaiXf5d_H-4" value="index.html&lt;div&gt;Display Main Menu&lt;/div&gt;&lt;div&gt;return menu option&lt;/div&gt;" style="text;html=1;align=center;verticalAlign=middle;whiteSpace=wrap;rounded=0;" vertex="1" parent="1">
          <mxGeometry x="330" y="145" width="180" height="30" as="geometry" />
        </mxCell>
        <mxCell id="rRNU8Htm1phzaiXf5d_H-5" value="" style="verticalLabelPosition=bottom;verticalAlign=top;html=1;shape=process;whiteSpace=wrap;rounded=1;size=0.14;arcSize=6;" vertex="1" parent="1">
          <mxGeometry x="370" y="220" width="100" height="60" as="geometry" />
        </mxCell>
        <mxCell id="rRNU8Htm1phzaiXf5d_H-6" value="Load Sensor Data" style="text;html=1;align=center;verticalAlign=middle;whiteSpace=wrap;rounded=0;" vertex="1" parent="1">
          <mxGeometry x="390" y="235" width="60" height="30" as="geometry" />
        </mxCell>
        <mxCell id="rRNU8Htm1phzaiXf5d_H-23" style="edgeStyle=orthogonalEdgeStyle;rounded=0;orthogonalLoop=1;jettySize=auto;html=1;exitX=0.5;exitY=1;exitDx=0;exitDy=0;" edge="1" parent="1" source="rRNU8Htm1phzaiXf5d_H-12">
          <mxGeometry relative="1" as="geometry">
            <mxPoint x="420.15151515151524" y="460" as="targetPoint" />
          </mxGeometry>
        </mxCell>
        <mxCell id="rRNU8Htm1phzaiXf5d_H-12" value="Manual Mode selected" style="rhombus;whiteSpace=wrap;html=1;strokeColor=default;align=center;verticalAlign=middle;fontFamily=Helvetica;fontSize=12;fontColor=default;fillColor=default;" vertex="1" parent="1">
          <mxGeometry x="320" y="340" width="200" height="80" as="geometry" />
        </mxCell>
        <mxCell id="rRNU8Htm1phzaiXf5d_H-16" value="Smart Mode selected" style="rhombus;whiteSpace=wrap;html=1;strokeColor=default;align=center;verticalAlign=middle;fontFamily=Helvetica;fontSize=12;fontColor=default;fillColor=default;" vertex="1" parent="1">
          <mxGeometry x="510" y="420" width="200" height="80" as="geometry" />
        </mxCell>
        <mxCell id="rRNU8Htm1phzaiXf5d_H-18" value="" style="endArrow=classic;html=1;rounded=0;exitX=0.5;exitY=1;exitDx=0;exitDy=0;entryX=0.5;entryY=0;entryDx=0;entryDy=0;" edge="1" parent="1" source="rRNU8Htm1phzaiXf5d_H-5" target="rRNU8Htm1phzaiXf5d_H-12">
          <mxGeometry width="50" height="50" relative="1" as="geometry">
            <mxPoint x="380" y="340" as="sourcePoint" />
            <mxPoint x="430" y="290" as="targetPoint" />
          </mxGeometry>
        </mxCell>
        <mxCell id="rRNU8Htm1phzaiXf5d_H-19" value="" style="endArrow=classic;html=1;rounded=0;entryX=0.5;entryY=0;entryDx=0;entryDy=0;exitX=1;exitY=0.5;exitDx=0;exitDy=0;" edge="1" parent="1" source="rRNU8Htm1phzaiXf5d_H-12" target="rRNU8Htm1phzaiXf5d_H-16">
          <mxGeometry width="50" height="50" relative="1" as="geometry">
            <mxPoint x="380" y="420" as="sourcePoint" />
            <mxPoint x="610" y="410" as="targetPoint" />
          </mxGeometry>
        </mxCell>
        <mxCell id="rRNU8Htm1phzaiXf5d_H-22" value="No" style="edgeLabel;html=1;align=center;verticalAlign=middle;resizable=0;points=[];" vertex="1" connectable="0" parent="rRNU8Htm1phzaiXf5d_H-19">
          <mxGeometry x="-0.0638" y="1" relative="1" as="geometry">
            <mxPoint as="offset" />
          </mxGeometry>
        </mxCell>
        <mxCell id="rRNU8Htm1phzaiXf5d_H-24" value="Enter watering cycle (days, start time, end time)" style="shape=process;whiteSpace=wrap;html=1;backgroundOutline=1;" vertex="1" parent="1">
          <mxGeometry x="360" y="460" width="120" height="60" as="geometry" />
        </mxCell>
        <mxCell id="rRNU8Htm1phzaiXf5d_H-27" value="" style="edgeStyle=orthogonalEdgeStyle;rounded=0;orthogonalLoop=1;jettySize=auto;html=1;" edge="1" parent="1" source="rRNU8Htm1phzaiXf5d_H-25" target="rRNU8Htm1phzaiXf5d_H-26">
          <mxGeometry relative="1" as="geometry" />
        </mxCell>
        <mxCell id="rRNU8Htm1phzaiXf5d_H-25" value="Load Sensor Data" style="shape=process;whiteSpace=wrap;html=1;backgroundOutline=1;" vertex="1" parent="1">
          <mxGeometry x="540" y="520" width="120" height="60" as="geometry" />
        </mxCell>
        <mxCell id="rRNU8Htm1phzaiXf5d_H-29" value="" style="edgeStyle=orthogonalEdgeStyle;rounded=0;orthogonalLoop=1;jettySize=auto;html=1;" edge="1" parent="1" source="rRNU8Htm1phzaiXf5d_H-26" target="rRNU8Htm1phzaiXf5d_H-28">
          <mxGeometry relative="1" as="geometry" />
        </mxCell>
        <mxCell id="rRNU8Htm1phzaiXf5d_H-26" value="Load Weather Forecast" style="shape=process;whiteSpace=wrap;html=1;backgroundOutline=1;" vertex="1" parent="1">
          <mxGeometry x="540" y="660" width="120" height="60" as="geometry" />
        </mxCell>
        <mxCell id="rRNU8Htm1phzaiXf5d_H-34" style="edgeStyle=orthogonalEdgeStyle;rounded=0;orthogonalLoop=1;jettySize=auto;html=1;exitX=0;exitY=0.5;exitDx=0;exitDy=0;entryX=0.5;entryY=0;entryDx=0;entryDy=0;" edge="1" parent="1" source="rRNU8Htm1phzaiXf5d_H-28" target="rRNU8Htm1phzaiXf5d_H-33">
          <mxGeometry relative="1" as="geometry" />
        </mxCell>
        <mxCell id="rRNU8Htm1phzaiXf5d_H-35" value="Yes" style="edgeLabel;html=1;align=center;verticalAlign=middle;resizable=0;points=[];" vertex="1" connectable="0" parent="rRNU8Htm1phzaiXf5d_H-34">
          <mxGeometry x="0.1146" y="2" relative="1" as="geometry">
            <mxPoint as="offset" />
          </mxGeometry>
        </mxCell>
        <mxCell id="rRNU8Htm1phzaiXf5d_H-28" value="sensorReading &amp;lt; threshold&amp;nbsp;" style="rhombus;whiteSpace=wrap;html=1;strokeColor=default;align=center;verticalAlign=middle;fontFamily=Helvetica;fontSize=12;fontColor=default;fillColor=default;" vertex="1" parent="1">
          <mxGeometry x="490" y="790" width="220" height="110" as="geometry" />
        </mxCell>
        <mxCell id="rRNU8Htm1phzaiXf5d_H-32" value="Switch on Valve" style="shape=process;whiteSpace=wrap;html=1;backgroundOutline=1;" vertex="1" parent="1">
          <mxGeometry x="330" y="1050" width="120" height="60" as="geometry" />
        </mxCell>
        <mxCell id="rRNU8Htm1phzaiXf5d_H-37" style="edgeStyle=orthogonalEdgeStyle;rounded=0;orthogonalLoop=1;jettySize=auto;html=1;exitX=0.5;exitY=1;exitDx=0;exitDy=0;entryX=0.5;entryY=0;entryDx=0;entryDy=0;" edge="1" parent="1" source="rRNU8Htm1phzaiXf5d_H-33" target="rRNU8Htm1phzaiXf5d_H-32">
          <mxGeometry relative="1" as="geometry" />
        </mxCell>
        <mxCell id="rRNU8Htm1phzaiXf5d_H-38" value="No" style="edgeLabel;html=1;align=center;verticalAlign=middle;resizable=0;points=[];" vertex="1" connectable="0" parent="rRNU8Htm1phzaiXf5d_H-37">
          <mxGeometry x="-0.1172" y="-1" relative="1" as="geometry">
            <mxPoint as="offset" />
          </mxGeometry>
        </mxCell>
        <mxCell id="rRNU8Htm1phzaiXf5d_H-33" value="rainProbability &amp;gt; 70%" style="rhombus;whiteSpace=wrap;html=1;strokeColor=default;align=center;verticalAlign=middle;fontFamily=Helvetica;fontSize=12;fontColor=default;fillColor=default;" vertex="1" parent="1">
          <mxGeometry x="280" y="870" width="220" height="110" as="geometry" />
        </mxCell>
      </root>
    </mxGraphModel>
  </diagram>
</mxfile>
